<svg width="797" height="392" viewBox="0 0 797 392" fill="none" xmlns="http://www.w3.org/2000/svg">
<path d="M377.307 391.335C358.841 391.335 342.979 388.826 329.722 383.807C316.464 378.883 305.811 372.254 297.761 363.92C289.712 355.587 284.125 346.354 281 336.222L327.307 325C329.39 329.261 332.42 333.475 336.398 337.642C340.375 341.903 345.725 345.407 352.449 348.153C359.267 350.994 367.837 352.415 378.159 352.415C392.742 352.415 404.816 348.864 414.381 341.761C423.945 334.754 428.727 323.201 428.727 307.102V265.767H426.17C423.519 271.07 419.636 276.515 414.523 282.102C409.504 287.689 402.828 292.377 394.494 296.165C386.256 299.953 375.886 301.847 363.386 301.847C346.625 301.847 331.426 297.917 317.79 290.057C304.248 282.102 293.453 270.265 285.403 254.545C277.449 238.731 273.472 218.939 273.472 195.17C273.472 171.212 277.449 150.994 285.403 134.517C293.453 117.945 304.295 105.398 317.932 96.875C331.568 88.2576 346.767 83.9489 363.528 83.9489C376.313 83.9489 386.824 86.1269 395.063 90.4829C403.396 94.7443 410.025 99.9053 414.949 105.966C419.873 111.932 423.614 117.566 426.17 122.869H429.011V86.7898H479.722V308.523C479.722 327.178 475.271 342.614 466.369 354.83C457.468 367.045 445.299 376.184 429.864 382.244C414.428 388.305 396.909 391.335 377.307 391.335ZM377.733 261.506C388.623 261.506 397.903 258.854 405.574 253.551C413.244 248.248 419.068 240.625 423.045 230.682C427.023 220.739 429.011 208.807 429.011 194.886C429.011 181.155 427.023 169.129 423.045 158.807C419.163 148.485 413.386 140.483 405.716 134.801C398.14 129.025 388.813 126.136 377.733 126.136C366.275 126.136 356.71 129.119 349.04 135.085C341.369 141.051 335.593 149.242 331.71 159.659C327.828 169.981 325.886 181.723 325.886 194.886C325.886 208.239 327.828 219.934 331.71 229.972C335.688 239.915 341.511 247.68 349.182 253.267C356.947 258.759 366.464 261.506 377.733 261.506Z" fill="currentColor"/>
<path d="M512.42 304.972V86.7898H563.841V304.972H512.42ZM538.273 55.8239C530.129 55.8239 523.121 53.125 517.25 47.7273C511.379 42.2348 508.443 35.6534 508.443 27.983C508.443 20.2178 511.379 13.6364 517.25 8.23863C523.121 2.74621 530.129 0 538.273 0C546.511 0 553.519 2.74621 559.295 8.23863C565.167 13.6364 568.102 20.2178 568.102 27.983C568.102 35.6534 565.167 42.2348 559.295 47.7273C553.519 53.125 546.511 55.8239 538.273 55.8239Z" fill="currentColor"/>
<path d="M691.888 309.233C670.581 309.233 652.115 304.545 636.49 295.17C620.865 285.795 608.744 272.68 600.126 255.824C591.604 238.968 587.342 219.271 587.342 196.733C587.342 174.195 591.604 154.451 600.126 137.5C608.744 120.549 620.865 107.386 636.49 98.0114C652.115 88.6364 670.581 83.9489 691.888 83.9489C713.195 83.9489 731.661 88.6364 747.286 98.0114C762.911 107.386 774.984 120.549 783.507 137.5C792.125 154.451 796.433 174.195 796.433 196.733C796.433 219.271 792.125 238.968 783.507 255.824C774.984 272.68 762.911 285.795 747.286 295.17C731.661 304.545 713.195 309.233 691.888 309.233ZM692.172 268.04C703.725 268.04 713.384 264.867 721.149 258.523C728.914 252.083 734.691 243.466 738.479 232.67C742.361 221.875 744.303 209.848 744.303 196.591C744.303 183.239 742.361 171.165 738.479 160.369C734.691 149.479 728.914 140.814 721.149 134.375C713.384 127.936 703.725 124.716 692.172 124.716C680.335 124.716 670.486 127.936 662.626 134.375C654.861 140.814 649.037 149.479 645.155 160.369C641.367 171.165 639.473 183.239 639.473 196.591C639.473 209.848 641.367 221.875 645.155 232.67C649.037 243.466 654.861 252.083 662.626 258.523C670.486 264.867 680.335 268.04 692.172 268.04Z" fill="currentColor"/>
<path d="M124.406 101.659L94.5039 190.818H155.199L169.699 233.148H80.3076L56.25 304.881H0L98.4189 25.3203L124.406 101.659Z" fill="currentColor"/>
<path d="M270.028 304.881H213.778L147.131 106.523L147.183 106.506L142.737 93.4482L136.079 73.6308H135.991L115.683 13.9716H167.472L270.028 304.881Z" fill="currentColor"/>
</svg>
